. 
  
http://www.torrentday.com/        :     The Hottest Private Tracker On The Net!!!
 
http://www.torrentday.com          :     Once & For all ;)


               www . TorrentDay . Com 

(((((((((((((= Enjoy No RAR releases =))))))))))))))))))))


...................................NFO:....................................

.*******************************************************************************
                   Angel.Heart.1987.BDRip.AC3.X264-BARC0DE
*******************************************************************************

-------------------------------------------------------------------------------
                              General Information
-------------------------------------------------------------------------------
Type.................: Movie
Name.................: Angel Heart
Movie Information....: http://www.imdb.com/title/tt0092563/
Genre................: Horror | Mystery | Thriller
-------------------------------------------------------------------------------
                                    PLOT
-------------------------------------------------------------------------------
Harry Angel has a new case, to find a man called Johnny Favourite. Except things 
aren't quite that simple, and Johnny doesn't want to be found. Let's just say 
that, amongst the period detail and beautiful scenery, it all gets really, 
really nasty.

-------------------------------------------------------------------------------
                                    CAST
-------------------------------------------------------------------------------
Mickey Rourke 	... 	Harry Angel 
Robert De Niro 	... 	Louis Cyphre 
Lisa Bonet 	... 	Epiphany Proudfoot 
Charlotte Rampling 	... 	Margaret Krusemark 
Stocker Fontelieu 	... 	Ethan Krusemark 
Brownie McGhee 	... 	Toots Sweet 
Michael Higgins 	... 	Dr. Albert Fowler 
Elizabeth Whitcraft 	... 	Connie 
Eliott Keener 	... 	Det. Sterne 
Charles Gordone 	... 	Spider Simpson 
Dann Florek 	... 	Herman Winesap 
Kathleen Wilhoite 	... 	Nurse 
George Buck 	... 	Izzy 
Judith Drake 	... 	Izzy's Wife 
Gerald Orange 	... 	Pastor John (as Gerald L. Orange)
-------------------------------------------------------------------------------
                                    MEDiA iNFO
-------------------------------------------------------------------------------

General
Complete name                    : Angel.Heart.1987.BDRip.AC3.X264-BARC0DE.mkv
Format                           : Matroska
File size                        : 1.44 GiB
Duration                         : 1h 53mn
Overall bit rate                 : 1 822 Kbps


Video
ID                               : 1
Format                           : AVC
Format/Info                      : Advanced Video Codec
Format profile                   : High@L3.0
Format settings, CABAC           : Yes
Format settings, ReFrames        : 4 frames
Muxing mode                      : Container profile=Unknown@3.0
Codec ID                         : V_MPEG4/ISO/AVC
Duration                         : 1h 53mn
Bit rate                         : 1 397 Kbps
Width                            : 720 pixels
Height                           : 384 pixels
Display aspect ratio             : 1.875
Frame rate mode                  : Variable
Frame rate                       : 23.976 fps
Color space                      : YUV
Chroma subsampling               : 4:2:0
Bit depth                        : 8 bits
Scan type                        : Progressive
Bits/(Pixel*Frame)               : 0.211
Stream size                      : 1.06 GiB (73%)
Writing library                  : x264 core 112


Audio
ID                               : 2
Format                           : AC-3
Format/Info                      : Audio Coding 3
Mode extension                   : CM (complete main)
Codec ID                         : A_AC3
Duration                         : 1h 53mn
Bit rate mode                    : Constant
Bit rate                         : 448 Kbps
Channel(s)                       : 6 channels
Channel positions                : Front: L C R, Side: L R, LFE
Sampling rate                    : 48.0 KHz
Stream size                      : 363 MiB (25%)
Language                         : English